<svg xmlns="http://www.w3.org/2000/svg" width="1600" height="540" viewBox="0 0 1600 540" role="img" aria-label="NI Documentation Transformation Demo">
  <rect width="1600" height="540" fill="#111827"/>
  <rect x="0" y="0" width="1600" height="14" fill="#F5C400"/>
  <rect x="88" y="88" width="500" height="324" rx="10" fill="#F8FAFC"/>
  <rect x="126" y="126" width="90" height="54" rx="3" fill="#F5C400"/>
  <text x="143" y="164" font-family="Arial, Helvetica, sans-serif" font-size="34" font-weight="800" fill="#111827">NI</text>
  <rect x="126" y="216" width="380" height="18" rx="9" fill="#111827"/>
  <rect x="126" y="260" width="316" height="12" rx="6" fill="#94A3B8"/>
  <rect x="126" y="290" width="356" height="12" rx="6" fill="#CBD5E1"/>
  <rect x="126" y="344" width="142" height="48" rx="4" fill="#111827"/>
  <rect x="290" y="344" width="142" height="48" rx="4" fill="#F5C400"/>
  <g fill="none" stroke="#F5C400" stroke-width="4" opacity=".9">
    <path d="M824 160 H1030 V98 H1260"/>
    <path d="M824 270 H1090"/>
    <path d="M824 382 H1030 V446 H1260"/>
  </g>
  <g fill="#F5C400">
    <circle cx="824" cy="160" r="12"/>
    <circle cx="824" cy="270" r="12"/>
    <circle cx="824" cy="382" r="12"/>
    <circle cx="1260" cy="98" r="12"/>
    <circle cx="1090" cy="270" r="12"/>
    <circle cx="1260" cy="446" r="12"/>
  </g>
  <text x="734" y="220" font-family="Arial, Helvetica, sans-serif" font-size="64" font-weight="800" fill="#FFFFFF">Future-state docs</text>
  <text x="738" y="272" font-family="Arial, Helvetica, sans-serif" font-size="27" fill="#CBD5E1">Open contribution, AI drafting, HTML delivery,</text>
  <text x="738" y="310" font-family="Arial, Helvetica, sans-serif" font-size="27" fill="#CBD5E1">metadata enrichment, and translation-ready workflows.</text>
</svg>
